<svg xmlns="http://www.w3.org/2000/svg" xml:space="preserve" viewBox="0 0 500 500">
  <!-- Background -->
  <path d="M0 0h500v500H0z" style="fill:#fff"/>

  <!-- Car Body - Changed to Boride Green -->
  <path d="M313.647 422.863H203.745c-12.691 0-22.979-10.288-22.979-22.979V97.874c0-12.691 10.288-22.979 22.979-22.979h109.902c12.691 0 22.979 10.288 22.979 22.979v302.01c-.001 12.691-10.288 22.979-22.979 22.979z" style="fill:#00C48C;stroke:#1d1d1b;stroke-miterlimit:10"/>

  <!-- Car Roof -->
  <path d="M297.66 292.847h-77.987l10.019-18.358a4.99 4.99 0 0 1 4.379-2.599h49.191a4.99 4.99 0 0 1 4.379 2.599z" style="fill:#00C48C"/>

  <!-- Car Windows -->
  <path d="M293.824 291.817h-70.316l9.401-15.659a3.13 3.13 0 0 1 2.684-1.519h46.147c1.099 0 2.118.577 2.684 1.519z" style="fill:#f0efed"/>

  <!-- Car Text - Changed from "TAXI" to "Boride" -->
  <text style="fill:#38303b;font-family:&quot;Poppins-Bold&quot;;font-size:13.456px" transform="translate(243.108 287.344)">Boride</text>

  <!-- Phone Screen -->
  <path d="M319.655 96.049h-7.235a.22.22 0 0 1-.222-.222v-3.116c0-.122.099-.222.222-.222h7.235c.123 0 .222.099.222.222v3.116c0 .122-.1.222-.222.222" style="fill:#817e84"/>
  <text style="fill:#817e84;font-family:&quot;Poppins-Regular&quot;;font-size:5.6569px" transform="matrix(.9399 0 0 1 196.013 96.387)">8:30</text>

  <!-- Map Lines & Pins -->
  <path d="m286.448 144.129-5.821 14.348M217.03 279.841l21.445 2.587M202.66 106.027l36.404 63.739M303.471 139.661l-7.811 20.384" style="fill:none;stroke:#fff;stroke-width:.9921;stroke-miterlimit:10"/>
  <path d="m251.849 162.406 26.644 26.988c1.285 1.302 2.116 3.031 2.356 4.902q.072.56.072 1.124v123.466l11.201 12.701M279.153 102.028l-26.824 60.839" style="fill:none;stroke:#fff;stroke-width:1.4173;stroke-miterlimit:10"/>
  <path d="m286.375 144.208-20.929-10.349M280.627 290.19l49.521.314" style="fill:none;stroke:#fff;stroke-width:.9921;stroke-miterlimit:10"/>
  <path d="m186.596 160.672 24.907 25.088 41.121-23.05M211.503 185.76l4.195 19.983a178.8 178.8 0 0 1 2.901 54.623l-7.243 71.846M218.535 220.459l25.246-7.886c0-1.882.295-10.506.295-10.506l18.276-6.586" style="fill:none;stroke:#fff;stroke-width:1.4173;stroke-miterlimit:10"/>
  <path d="m253.803 198.932 4.569 52.45M269.646 180.351l-7.295 15.993M230.811 215.866l-8.254-36.456M267.583 250.755l-.81 26.734M225.8 195.796l14.222-5.096M240.022 190.7l-2.432-10.114" style="fill:none;stroke:#fff;stroke-width:.9921;stroke-miterlimit:10"/>
  <path d="M281.511 224.02h27.119v-47.981l8.106-30.734-46.869-22.579M186.006 246.913l15.033 5.018-5.011 28.224 20.634 3.763" style="fill:none;stroke:#fff;stroke-width:1.4173;stroke-miterlimit:10"/>
  <path d="m199.271 262.593 18.57 3.763" style="fill:none;stroke:#fff;stroke-width:.9921;stroke-miterlimit:10"/>
  <path d="m214.893 202.381-16.507 5.959-13.559-7.84" style="fill:none;stroke:#fff;stroke-width:1.4173;stroke-miterlimit:10"/>
  <path d="m304.503 290.504.295 41.395" style="fill:none;stroke:#fff;stroke-width:.9921;stroke-miterlimit:10"/>
  <path d="m280.627 303.989-33.014-1.568M244.665 332.213l5.011-66.484-30.951-3.763" style="fill:none;stroke:#fff;stroke-width:1.4173;stroke-miterlimit:10"/>
  <path d="m226.979 321.002 1.613-16.326 9.034 1.107 1.291-13.006M281.216 243.777c.438 0 30.951-.941 30.951-.941v8.781l23.876.314M305.092 310.261c.884-.314 16.802-.314 16.802-.314M308.63 176.039l-18.866.313" style="fill:none;stroke:#fff;stroke-width:.9921;stroke-miterlimit:10"/>
  <path d="M239.506 282.193c.148-.47 3.685-31.988 3.685-31.988l36.993.941" style="fill:none;stroke:#fff;stroke-width:1.4173;stroke-miterlimit:10"/>
  <path d="M224.003 131.277c-2.647-.02-4.811 2.272-4.832 5.12-.022 2.848 4.715 10.44 4.715 10.44s4.851-7.52 4.872-10.368c.021-2.847-2.108-5.172-4.755-5.192m-.057 7.55c-1.424-.011-2.569-1.194-2.558-2.643s1.174-2.615 2.598-2.605 2.569 1.194 2.558 2.644c-.012 1.449-1.175 2.615-2.598 2.604" style="fill:#00C48C"/>
  <path d="m224.215 145.429 15.308 26.092-17.009 10.785 7.824 36.529 13.947-3.826 6.123 37.573h33.337" style="fill:none;stroke:#00C48C;stroke-width:1.4173;stroke-linecap:round;stroke-miterlimit:10"/>
  <path d="M288.963 252.973a5.088 5.088 0 1 1-10.176 0 5.088 5.088 0 0 1 10.176 0" style="fill:#00C48C"/>
  <path d="M286.615 252.973a2.74 2.74 0 1 1-5.48 0 2.74 2.74 0 0 1 5.48 0" style="fill:#f0efed"/>

  <!-- Student Character (Left) -->
  <path d="M117.389 402.366c-17.401-1.887-45.218-27.791-49.533-51.391-2.295-12.553-2.325-26.978 4.878-38.512 7.927-12.695 22.224-18.373 32.928-28.419 13.267-12.451 20.722-31.381 34.753-42.702 10.56-8.52 24.234-11.631 35.688-8.119s24.463 16.517 26.938 29.335c3.483 18.04 5.01 25.637 7.762 37.588 2.247 9.759-.404 14.552 2.529 24.004 6.991 22.524-2.658 51.674-21.68 67.862-19.022 16.189-40.463 14.723-68.35 12.543" style="fill:#ecf0f7"/>
  <path d="M70.678 437.168l-27.954-42.557c-1.873-2.852 1.054-6.603 4.151-5.269 7.84 3.378 14.659 9.201 19.159 16.592 2.148-12.093-7.189-22.647-15.837-30.968-6.876-6.616-14.264-14.514-16.081-23.576-.736-3.672 2.783-6.814 6.257-5.661 7.743 2.572 14.736 7.425 19.846 13.891-7.765-14.501-17.497-27.871-28.834-39.614-2.585-2.677-5.383-5.783-7.086-9.116-2.153-4.214 1.776-9.17 6.215-7.749a39.2 39.2 0 0 1 13.602 7.608c-10.38-14.104-21.33-30.51-18.135-48.064.671-3.686 2.121-7.538 6.834-8.371 1.933-.342 3.937-.011 5.685.861 4.127 2.061 6.503 6.241 8.438 10.386 4.638 9.936 7.626 20.699 8.811 31.696.208 1.928 2.683 2.574 3.758.956 3.554-5.345 2.333-16.28 8.784-18.03 3.116-.846 6.28 1.012 7.462 4.052 2.178 5.599-.476 10.835-2.612 15.887a93.8 93.8 0 0 0-7.38 37.4 473 473 0 0 1 8.661-4.634c5.976-3.118 12.548 2.66 10.453 9.177-3.062 9.528-10.494 19.393-11.113 29.666-.095 1.572.045 3.361 2.134 3.868 1.896.46 3.871-.564 4.888-2.293 4.303-7.315 12.341-1.325 12.384 4.854.035 5.123-3.313 9.594-6.519 13.577s-6.609 8.383-6.715 13.507l8.967-2.835c3.641-1.151 6.68 2.782 4.842 6.213-1.954 3.647-5.347 6.929-8.482 9.714-5.336 4.743-11.028 11.609-8.542 18.282" style="fill:#d8e1ef"/>

  <!-- Rider Character (Right) -->
  <path d="M417.456 438.195c2.246-6.385 6.439-12.628 12.949-14.91 7.177-2.516 17.022-.457 21.109-6.725 2.051-3.147 1.433-7.717-1.392-10.29s-7.538-2.857-10.61-.64c-1.56-5.018 2.986-9.779 7.591-12.399s10.08-4.771 12.328-9.49-2.707-12.04-7.334-9.455c-1.62.905-2.829 2.827-4.705 2.739-1.878-.088-2.994-2.359-2.557-4.137s1.885-3.114 3.265-4.342l12.595-11.212c3.317-2.952 6.832-6.257 7.477-10.61s-3.483-9.481-7.754-8.098c-3.063.992-5.616 4.853-8.537 3.455-2.643-1.265-1.713-5.156-.136-7.548 3.988-6.051 9.559-10.991 13.445-17.104s5.859-14.258 2.026-20.49c-1.621-2.636-4.478-4.8-7.61-4.694-4.123.139-6.989 3.904-8.966 7.418a87.5 87.5 0 0 0-10.424 31.07c-3.448-.21-4.687-4.465-5.395-7.77-.709-3.304-3.395-7.362-6.575-6.085-1.325.532-2.102 1.879-2.534 3.212-3.273 10.095 7.6 19.151 10.528 29.416.782 2.742.951 5.795-.386 8.3s-4.505 4.189-7.249 3.216c-3.131-1.11-6.781-4.999-8.703-2.38-1.006 1.371-.038 3.259.865 4.718a60.5 60.5 0 0 1 7.851 19.801c.867 4.293 1.082 9.239-1.9 12.461s-10.024 2.217-10.348-2.141c-2.103-.292-3.764 1.981-3.697 4.051.066 2.069 1.261 3.926 2.252 5.767 4.705 8.743 5.245 19.482 1.436 28.538" style="fill:#d8e1ef"/>

  <!-- Backpack Icon (Near Student) -->
  <path d="M100 350c-2 0-4 1-5 3-1 2-1 4 0 6s3 3 5 3 4-1 5-3 1-4 0-6-3-3-5-3z" style="fill:#00C48C;stroke:#38303b;stroke-width:1"/>

  <!-- Location Pin (On Map) -->
  <path d="M324.449 287.546c59.491 3.653 78.26-16.813 93.933-32.877 8.336-8.545 13.139-27.528 12.811-39.734-.361-13.434-9.745-24.47-13.831-37.173-5.065-15.745-1.857-33.735-8.151-48.971-4.737-11.466-14.889-20.245-26.496-22.91-11.607-2.666-29.363 1.215-37.988 9.879-12.138 12.193-17.302 17.3-25.725 25.17-6.878 6.427-7.035 11.339-14.346 17.209-17.422 13.988-23.931 40.836-15.825 62.135s10.138 50.909 31.966 50.573" style="fill:#ecf0f7"/>
  <path d="M313.647 422.863H203.745c-12.691 0-22.979-10.288-22.979-22.979V97.874c0-12.691 10.288-22.979 22.979-22.979h109.902c12.691 0 22.979 10.288 22.979 22.979v302.01c-.001 12.691-10.288 22.979-22.979 22.979z" style="fill:#00C48C;stroke:#1d1d1b;stroke-miterlimit:10"/>
  <path d="M297.66 292.847h-77.987l10.019-18.358a4.99 4.99 0 0 1 4.379-2.599h49.191a4.99 4.99 0 0 1 4.379 2.599z" style="fill:#00C48C"/>
  <path d="M293.824 291.817h-70.316l9.401-15.659a3.13 3.13 0 0 1 2.684-1.519h46.147c1.099 0 2.118.577 2.684 1.519z" style="fill:#f0efed"/>
  <text style="fill:#38303b;font-family:&quot;Poppins-Bold&quot;;font-size:13.456px" transform="translate(243.108 287.344)">Boride</text>
</svg>